HIERARCHY
ROOT hip
{
  OFFSET 0 0 0
  CHANNELS 6 Xposition Yposition Zposition Zrotation Yrotation Xrotation
  JOINT abdomen
  {
    OFFSET 0 20.6881 -0.73152
    CHANNELS 3 Zrotation Xrotation Yrotation
    JOINT chest
    {
      OFFSET 0 11.7043 -0.48768
      CHANNELS 3 Zrotation Xrotation Yrotation
      JOINT neck
      {
        OFFSET 0 22.1894 -2.19456
        CHANNELS 3 Zrotation Xrotation Yrotation
        JOINT head
        {
          OFFSET -0.24384 7.07133 1.2192
          CHANNELS 3 Zrotation Xrotation Yrotation
          JOINT leftEye
          {
            OFFSET 4.14528 8.04674 8.04672
            CHANNELS 3 Zrotation Xrotation Yrotation
            End Site
            {
              OFFSET 1 0 0
            }
          }
          JOINT rightEye
          {
            OFFSET -3.6576 8.04674 8.04672
            CHANNELS 3 Zrotation Xrotation Yrotation
            End Site
            {
              OFFSET 1 0 0
            }
          }
        }
      }
      JOINT rCollar
      {
        OFFSET -2.68224 19.2634 -4.8768
        CHANNELS 3 Zrotation Xrotation Yrotation
        JOINT rShldr
        {
          OFFSET -8.77824 -1.95073 1.46304
          CHANNELS 3 Zrotation Xrotation Yrotation
          JOINT rForeArm
          {
            OFFSET -28.1742 -1.7115 0.48768
            CHANNELS 3 Zrotation Xrotation Yrotation
            JOINT rHand
            {
              OFFSET -22.5879 0.773209 7.07136
              CHANNELS 3 Zrotation Xrotation Yrotation
              JOINT rThumb1
              {
                OFFSET -1.2192 -0.487915 3.41376
                CHANNELS 3 Zrotation Xrotation Yrotation
                JOINT rThumb2
                {
                  OFFSET -3.37035 -0.52449 3.41376
                  CHANNELS 3 Zrotation Xrotation Yrotation
                  End Site
                  {
                    OFFSET -1.78271 -1.18214 1.43049
                  }
                }
              }
              JOINT rIndex1
              {
                OFFSET -7.75947 0.938293 5.60832
                CHANNELS 3 Zrotation Xrotation Yrotation
                JOINT rIndex2
                {
                  OFFSET -2.54057 -0.884171 1.56538
                  CHANNELS 3 Zrotation Xrotation Yrotation
                  End Site
                  {
                    OFFSET -1.62519 -0.234802 1.16502
                  }
                }
              }
              JOINT rMid1
              {
                OFFSET -8.24714 1.18213 3.41376
                CHANNELS 3 Zrotation Xrotation Yrotation
                JOINT rMid2
                {
                  OFFSET -3.10165 -0.590103 1.0647
                  CHANNELS 3 Zrotation Xrotation Yrotation
                  End Site
                  {
                    OFFSET -2.48547 -0.328903 0.83742
                  }
                }
              }
              JOINT rRing1
              {
                OFFSET -8.82822 0.546677 1.51678
                CHANNELS 3 Zrotation Xrotation Yrotation
                JOINT rRing2
                {
                  OFFSET -2.60934 -0.819778 -0.0198488
                  CHANNELS 3 Zrotation Xrotation Yrotation
                  End Site
                  {
                    OFFSET -2.33842 -0.294052 0.168128
                  }
                }
              }
              JOINT rPinky1
              {
                OFFSET -8.27202 -0.0477905 -0.4584
                CHANNELS 3 Zrotation Xrotation Yrotation
                JOINT rPinky2
                {
                  OFFSET -1.82734 -0.647385 -0.700984
                  CHANNELS 3 Zrotation Xrotation Yrotation
                  End Site
                  {
                    OFFSET -1.69225 -0.51767 -0.607171
                  }
                }
              }
            }
          }
        }
      }
      JOINT lCollar
      {
        OFFSET 2.68224 19.2634 -4.8768
        CHANNELS 3 Zrotation Xrotation Yrotation
        JOINT lShldr
        {
          OFFSET 8.77824 -1.95073 1.46304
          CHANNELS 3 Zrotation Xrotation Yrotation
          JOINT lForeArm
          {
            OFFSET 28.1742 -1.7115 0.48768
            CHANNELS 3 Zrotation Xrotation Yrotation
            JOINT lHand
            {
              OFFSET 22.5879 0.773209 7.07136
              CHANNELS 3 Zrotation Xrotation Yrotation
              JOINT lThumb1
              {
                OFFSET 1.2192 -0.487915 3.41376
                CHANNELS 3 Zrotation Xrotation Yrotation
                JOINT lThumb2
                {
                  OFFSET 3.37035 -0.52449 3.41376
                  CHANNELS 3 Zrotation Xrotation Yrotation
                  End Site
                  {
                    OFFSET 1.78271 -1.18214 1.43049
                  }
                }
              }
              JOINT lIndex1
              {
                OFFSET 7.75947 0.938293 5.60832
                CHANNELS 3 Zrotation Xrotation Yrotation
                JOINT lIndex2
                {
                  OFFSET 2.54057 -0.884171 1.56538
                  CHANNELS 3 Zrotation Xrotation Yrotation
                  End Site
                  {
                    OFFSET 1.62519 -0.234802 1.16502
                  }
                }
              }
              JOINT lMid1
              {
                OFFSET 8.24714 1.18213 3.41376
                CHANNELS 3 Zrotation Xrotation Yrotation
                JOINT lMid2
                {
                  OFFSET 3.10165 -0.590103 1.0647
                  CHANNELS 3 Zrotation Xrotation Yrotation
                  End Site
                  {
                    OFFSET 2.48547 -0.328903 0.83742
                  }
                }
              }
              JOINT lRing1
              {
                OFFSET 8.82822 0.546677 1.51678
                CHANNELS 3 Zrotation Xrotation Yrotation
                JOINT lRing2
                {
                  OFFSET 2.60934 -0.819778 -0.0198488
                  CHANNELS 3 Zrotation Xrotation Yrotation
                  End Site
                  {
                    OFFSET 2.33842 -0.294052 0.168128
                  }
                }
              }
              JOINT lPinky1
              {
                OFFSET 8.27202 -0.0477905 -0.4584
                CHANNELS 3 Zrotation Xrotation Yrotation
                JOINT lPinky2
                {
                  OFFSET 1.82734 -0.647385 -0.700984
                  CHANNELS 3 Zrotation Xrotation Yrotation
                  End Site
                  {
                    OFFSET 1.69225 -0.51767 -0.607171
                  }
                }
              }
            }
          }
        }
      }
    }
  }
  JOINT rButtock
  {
    OFFSET -8.77824 4.35084 1.2192
    CHANNELS 3 Zrotation Xrotation Yrotation
    JOINT rThigh
    {
      OFFSET 0 -1.70687 -2.19456
      CHANNELS 3 Zrotation Xrotation Yrotation
      JOINT rShin
      {
        OFFSET 0 -36.8199 0.73152
        CHANNELS 3 Zrotation Xrotation Yrotation
        JOINT rFoot
        {
          OFFSET 0.73152 -45.1104 -5.12064
          CHANNELS 3 Zrotation Xrotation Yrotation
          End Site
          {
            OFFSET -1.1221 -3.69964 12.103
          }
        }
      }
    }
  }
  JOINT lButtock
  {
    OFFSET 8.77824 4.35084 1.2192
    CHANNELS 3 Zrotation Xrotation Yrotation
    JOINT lThigh
    {
      OFFSET 0 -1.70687 -2.19456
      CHANNELS 3 Zrotation Xrotation Yrotation
      JOINT lShin
      {
        OFFSET 0 -36.8199 0.73152
        CHANNELS 3 Zrotation Xrotation Yrotation
        JOINT lFoot
        {
          OFFSET -0.73152 -45.1104 -5.12064
          CHANNELS 3 Zrotation Xrotation Yrotation
          End Site
          {
            OFFSET 1.1221 -3.69964 12.103
          }
        }
      }
    }
  }
}
MOTION
Frames:	9
Frame Time:	0.00833333
-114.219 84.1854 5.68263 201.482 76.9294 -149.455 12.9968 -4.81065 7.77251 -3.34694 -15.6102 2.04272 -12.5891 -8.24168 -6.83794 10.7437 39.5443 -8.30397 -0.0 0.0 0.0 -0.0 0.0 0.0 2.31418e-13 9.76134e-13 6.90777e-14 40.0422 6.97642 20.7304 -27.3746 -27.6816 63.5632 -0.0603453 -7.05165 -0.996139 6.13366e-10 1.84392e-10 -7.18421e-10 1.06484e-09 3.1696e-10 -1.2438e-09 6.13369e-10 1.84389e-10 -7.1843e-10 7.73091 5.47488 0.417314 6.13367e-10 1.8439e-10 -7.18423e-10 2.90554 0.965183 0.102902 6.13368e-10 1.84387e-10 -7.1842e-10 10.2786 0.731801 0.0259123 6.13355e-10 1.8439e-10 -7.18413e-10 2.22167 -0.733487 -0.20892 2.31319e-13 9.7613e-13 6.88478e-14 -73.3814 5.38907 16.4506 18.4844 -11.2176 -35.115 0.000813136 -0.779105 0.109504 -1.95979e-09 1.28236e-09 1.35976e-11 -3.38776e-09 2.23547e-09 2.81716e-11 -1.95979e-09 1.28236e-09 1.36158e-11 -7.73091 5.47488 -0.417314 -1.95979e-09 1.28235e-09 1.35966e-11 -2.90554 0.965183 -0.102902 -1.9598e-09 1.28235e-09 1.36011e-11 -10.2786 0.731801 -0.0259123 -1.95979e-09 1.28236e-09 1.36002e-11 -2.22167 -0.733487 0.20892 -2.03217e-16 0.0 -3.88251e-19 21.9987 -0.0837335 29.2863 -0.00983898 7.78466 -0.165127 -18.4093 -30.6293 -37.0888 2.03217e-16 0.0 3.88251e-19 5.62021 -22.5255 -19.5963 0.0741739 15.4326 -0.770886 2.81231 -7.70097 14.3917
-114.154 84.1398 5.93028 202.49 76.5212 -148.669 12.946 -4.96857 7.78496 -2.83262 -15.6129 2.12248 -12.7126 -8.06601 -6.9737 10.5329 39.5829 -8.45343 -0.0 0.0 0.0 -0.0 0.0 0.0 8.21573e-14 5.09165e-13 4.99695e-14 40.8871 7.26148 21.487 -27.3614 -27.6302 63.4782 -0.0836983 -8.22888 -1.16472 -1.20084e-09 8.61175e-11 -4.62533e-10 -2.06819e-09 1.46628e-10 -8.11963e-10 -1.20084e-09 8.61126e-11 -4.6254e-10 7.73091 5.47488 0.417314 -1.20084e-09 8.61157e-11 -4.62536e-10 2.90554 0.965183 0.102902 -1.20085e-09 8.61108e-11 -4.62533e-10 10.2786 0.731801 0.0259123 -1.20086e-09 8.61155e-11 -4.62525e-10 2.22167 -0.733487 -0.20892 8.20015e-14 5.09158e-13 4.97241e-14 -73.8495 5.52783 16.4941 18.5722 -11.3157 -35.316 0.000807229 -0.777915 0.109336 7.12484e-10 3.14349e-09 1.15181e-09 1.23328e-09 5.45498e-09 1.99667e-09 7.12479e-10 3.14349e-09 1.15183e-09 -7.73091 5.47488 -0.417314 7.12482e-10 3.14348e-09 1.15181e-09 -2.90554 0.965183 -0.102902 7.12472e-10 3.14349e-09 1.15182e-09 -10.2786 0.731801 -0.0259123 7.12482e-10 3.14349e-09 1.15181e-09 -2.22167 -0.733487 0.20892 -2.03217e-16 0.0 -3.88251e-19 22.6147 0.0854203 30.0833 -0.0171145 7.98962 -0.182803 -19.2108 -31.3469 -37.7482 2.03217e-16 0.0 3.88251e-19 6.11796 -22.5719 -19.4407 0.0738429 15.4008 -0.781363 2.85725 -8.04096 14.1582
-114.124 84.0658 6.0496 200.582 76.2503 -150.456 12.894 -5.12826 7.77017 -2.44427 -15.6189 2.17591 -12.8371 -7.92897 -7.10881 10.3527 39.6342 -8.60879 -0.0 0.0 0.0 -0.0 0.0 0.0 -2.61494e-14 2.0674e-13 9.64106e-15 41.7538 7.42682 22.0867 -27.3565 -27.6107 63.4453 -0.109706 -9.40393 -1.33375 -2.32093e-09 5.33188e-11 -1.88613e-10 -4.00352e-09 8.99429e-11 -3.45356e-10 -2.32093e-09 5.33133e-11 -1.8862e-10 7.73091 5.47488 0.417314 -2.32093e-09 5.33172e-11 -1.88616e-10 2.90554 0.965183 0.102902 -2.32094e-09 5.33119e-11 -1.88612e-10 10.2786 0.731801 0.0259123 -2.32095e-09 5.33168e-11 -1.88604e-10 2.22167 -0.733487 -0.20892 -2.63314e-14 2.06731e-13 9.39258e-15 -74.2818 5.6105 16.5251 18.6419 -11.3939 -35.4767 0.000632565 -0.718142 0.100934 2.58006e-09 4.07583e-09 1.82774e-09 4.46286e-09 7.06612e-09 3.16502e-09 2.58005e-09 4.07583e-09 1.82774e-09 -7.73091 5.47488 -0.417314 2.58005e-09 4.07582e-09 1.82773e-09 -2.90554 0.965183 -0.102902 2.58005e-09 4.07583e-09 1.82774e-09 -10.2786 0.731801 -0.0259123 2.58006e-09 4.07583e-09 1.82773e-09 -2.22167 -0.733487 0.20892 -2.03217e-16 0.0 -3.88251e-19 22.9948 0.156645 30.4961 -0.0223934 8.09361 -0.200965 -19.8254 -31.7882 -38.3458 2.03217e-16 0.0 3.88251e-19 6.34182 -22.6666 -19.4573 0.0738452 15.4339 -0.790465 2.88363 -8.31131 13.9579
-114.443 84.0763 5.52189 196.605 75.8863 -154.008 12.8306 -5.29898 7.71924 -2.24242 -15.6322 2.1915 -12.9533 -7.8478 -7.24227 10.1813 39.7037 -8.76248 -0.0 0.0 0.0 -0.0 0.0 0.0 -8.6496e-14 1.5666e-13 -9.40523e-14 42.7041 7.44684 22.5151 -27.3673 -27.6523 63.5112 -0.159041 -11.1442 -1.58645 -2.49144e-09 1.36307e-10 3.02351e-10 -4.30063e-09 2.34176e-10 5.01348e-10 -2.49143e-09 1.36302e-10 3.02343e-10 7.73091 5.47488 0.417314 -2.49144e-09 1.36305e-10 3.02349e-10 2.90554 0.965183 0.102902 -2.49144e-09 1.36301e-10 3.02352e-10 10.2786 0.731801 0.0259123 -2.49145e-09 1.36305e-10 3.02362e-10 2.22167 -0.733487 -0.20892 -8.66565e-14 1.56648e-13 -9.42818e-14 -74.6741 5.62546 16.5212 18.6862 -11.4438 -35.5793 0.000456299 -0.597742 0.0840087 3.4964e-09 3.31044e-09 1.77429e-09 6.04768e-09 5.73575e-09 3.07025e-09 3.49639e-09 3.31044e-09 1.77429e-09 -7.73091 5.47488 -0.417314 3.4964e-09 3.31043e-09 1.77428e-09 -2.90554 0.965183 -0.102902 3.49639e-09 3.31044e-09 1.77428e-09 -10.2786 0.731801 -0.0259123 3.4964e-09 3.31044e-09 1.77428e-09 -2.22167 -0.733487 0.20892 -2.03217e-16 0.0 -3.88251e-19 23.0053 0.0698822 30.3019 -0.02487 8.04178 -0.218853 -20.119 -31.8054 -38.8175 2.03217e-16 0.0 3.88251e-19 6.12987 -22.8389 -19.7584 0.0744586 15.5718 -0.797178 2.89081 -8.47941 13.8318
-114.501 84.0393 5.55437 196.714 75.3494 -153.953 12.7397 -5.48481 7.6437 -2.13648 -15.6495 2.18594 -13.0532 -7.80485 -7.37896 9.9981 39.7916 -8.92227 -0.0 0.0 0.0 -0.0 0.0 0.0 -1.28079e-13 2.38748e-13 -2.49779e-13 43.7667 7.30229 22.826 -27.3849 -27.7206 63.6201 -0.244179 -13.3634 -1.91513 -2.10908e-09 2.87147e-10 9.95655e-10 -3.64436e-09 4.96157e-10 1.70056e-09 -2.10907e-09 2.87143e-10 9.95642e-10 7.73091 5.47488 0.417314 -2.10908e-09 2.87145e-10 9.95654e-10 2.90554 0.965183 0.102902 -2.10908e-09 2.87144e-10 9.95656e-10 10.2786 0.731801 0.0259123 -2.10909e-09 2.87146e-10 9.95667e-10 2.22167 -0.733487 -0.20892 -1.28187e-13 2.38733e-13 -2.49975e-13 -75.0519 5.5876 16.5033 18.7135 -11.4747 -35.642 0.000360562 -0.426454 0.0599319 3.96055e-09 1.35971e-09 1.25585e-09 6.85061e-09 2.35104e-09 2.16992e-09 3.96054e-09 1.35971e-09 1.25586e-09 -7.73091 5.47488 -0.417314 3.96055e-09 1.3597e-09 1.25585e-09 -2.90554 0.965183 -0.102902 3.96054e-09 1.35971e-09 1.25585e-09 -10.2786 0.731801 -0.0259123 3.96055e-09 1.35971e-09 1.25584e-09 -2.22167 -0.733487 0.20892 -2.03217e-16 0.0 -3.88251e-19 22.7723 -0.122032 29.7233 -0.0259598 7.89208 -0.237001 -20.2155 -31.5346 -39.245 2.03217e-16 0.0 3.88251e-19 5.61753 -23.0678 -20.2552 0.0756163 15.795 -0.802845 2.88615 -8.59011 13.745
-114.53 84.0027 5.61368 196.565 74.8918 -154.163 12.6551 -5.66198 7.55486 -2.05819 -15.6647 2.17265 -13.1647 -7.77442 -7.51753 9.86858 39.8855 -9.09987 -0.0 0.0 0.0 -0.0 0.0 0.0 -1.44766e-13 3.45584e-13 -3.71213e-13 44.7972 7.0736 23.0091 -27.3991 -27.7761 63.709 -0.307931 -14.8495 -2.13926 -1.45109e-09 4.28592e-10 1.45455e-09 -2.51225e-09 7.41905e-10 2.496e-09 -1.45107e-09 4.28589e-10 1.45453e-09 7.73091 5.47488 0.417314 -1.45109e-09 4.2859e-10 1.45455e-09 2.90554 0.965183 0.102902 -1.45108e-09 4.28591e-10 1.45455e-09 10.2786 0.731801 0.0259123 -1.45109e-09 4.28591e-10 1.45456e-09 2.22167 -0.733487 -0.20892 -1.44817e-13 3.45566e-13 -3.71376e-13 -75.4051 5.51201 16.5053 18.735 -11.4992 -35.6911 0.000231432 -0.201569 0.0283255 3.92793e-09 -4.30541e-10 6.75062e-10 6.79445e-09 -7.53803e-10 1.1626e-09 3.92793e-09 -4.30531e-10 6.75076e-10 -7.73091 5.47488 -0.417314 3.92793e-09 -4.30542e-10 6.75066e-10 -2.90554 0.965183 -0.102902 3.92793e-09 -4.30538e-10 6.75064e-10 -10.2786 0.731801 -0.0259123 3.92794e-09 -4.30535e-10 6.75056e-10 -2.22167 -0.733487 0.20892 -2.03217e-16 0.0 -3.88251e-19 22.5061 -0.32108 29.0943 -0.0267771 7.72446 -0.256667 -20.2856 -31.2229 -39.679 2.03217e-16 0.0 3.88251e-19 5.06106 -23.3001 -20.7641 0.0768404 16.0284 -0.808782 2.86945 -8.68233 13.631
-114.514 83.9819 5.68117 196.236 74.4981 -154.602 12.611 -5.80669 7.46404 -1.93928 -15.6719 2.16504 -13.316 -7.73081 -7.6566 9.85813 39.9727 -9.30692 -0.0 0.0 0.0 -0.0 0.0 0.0 -1.30425e-13 3.69749e-13 -3.72026e-13 45.6484 6.84 23.0538 -27.4001 -27.7799 63.7141 -0.260976 -14.3921 -2.06676 -7.94706e-10 4.83393e-10 1.24229e-09 -1.38182e-09 8.3744e-10 2.13137e-09 -7.94687e-10 4.83391e-10 1.24227e-09 7.73091 5.47488 0.417314 -7.94704e-10 4.83391e-10 1.24229e-09 2.90554 0.965183 0.102902 -7.94701e-10 4.83394e-10 1.24229e-09 10.2786 0.731801 0.0259123 -7.94707e-10 4.83392e-10 1.2423e-09 2.22167 -0.733487 -0.20892 -1.30439e-13 3.69731e-13 -3.72175e-13 -75.7233 5.41381 16.5614 18.762 -11.53 -35.7528 7.77586e-06 0.0796176 -0.0111895 3.35397e-09 -7.14482e-10 4.34575e-10 5.802e-09 -1.24457e-09 7.4683e-10 3.35397e-09 -7.14471e-10 4.34591e-10 -7.73091 5.47488 -0.417314 3.35397e-09 -7.14481e-10 4.34581e-10 -2.90554 0.965183 -0.102902 3.35397e-09 -7.1448e-10 4.34578e-10 -10.2786 0.731801 -0.0259123 3.35398e-09 -7.14475e-10 4.34572e-10 -2.22167 -0.733487 0.20892 -2.03217e-16 0.0 -3.88251e-19 22.4246 -0.42494 28.7483 -0.0283433 7.61889 -0.279121 -20.5072 -31.1123 -40.1716 2.03217e-16 0.0 3.88251e-19 4.72219 -23.486 -21.0994 0.0776396 16.1974 -0.816286 2.83969 -8.7951 13.423
-114.485 83.9896 5.71231 196.039 74.0364 -154.962 12.6257 -5.91202 7.37482 -1.75253 -15.6632 2.1682 -13.5365 -7.66875 -7.80184 10.0426 40.0601 -9.57016 -0.0 0.0 0.0 -0.0 0.0 0.0 -6.42528e-14 2.23678e-13 -1.45835e-13 46.3202 6.57798 22.9174 -27.3786 -27.6952 63.5759 -0.0864275 -11.0179 -1.5585 -6.66516e-11 4.13525e-10 -3.36598e-10 -1.27916e-10 7.17248e-10 -5.94589e-10 -6.66309e-11 4.13522e-10 -3.36615e-10 7.73091 5.47488 0.417314 -6.66503e-11 4.13523e-10 -3.36598e-10 2.90554 0.965183 0.102902 -6.66478e-11 4.13524e-10 -3.36596e-10 10.2786 0.731801 0.0259123 -6.66528e-11 4.13523e-10 -3.36585e-10 2.22167 -0.733487 -0.20892 -6.4259e-14 2.23662e-13 -1.45997e-13 -76.0127 5.29485 16.6804 18.7997 -11.5732 -35.8398 9.08445e-05 0.423622 -0.0595402 1.78576e-09 2.10261e-09 9.05408e-10 3.0903e-09 3.64527e-09 1.567e-09 1.78575e-09 2.10262e-09 9.05424e-10 -7.73091 5.47488 -0.417314 1.78576e-09 2.10261e-09 9.05415e-10 -2.90554 0.965183 -0.102902 1.78575e-09 2.10261e-09 9.05413e-10 -10.2786 0.731801 -0.0259123 1.78576e-09 2.10262e-09 9.05408e-10 -2.22167 -0.733487 0.20892 -2.03217e-16 0.0 -3.88251e-19 22.6258 -0.379408 28.8511 -0.0309964 7.59695 -0.308167 -21.0159 -31.3018 -40.8311 2.03217e-16 0.0 3.88251e-19 4.71397 -23.6065 -21.1676 0.0777309 16.2596 -0.826175 2.78624 -8.93272 13.0687
-114.463 84.0076 5.76424 196.074 73.4754 -155.099 12.6781 -5.99084 7.28096 -1.53737 -15.644 2.17446 -13.8038 -7.60143 -7.95196 10.3681 40.1506 -9.8758 -0.0 0.0 0.0 -0.0 0.0 0.0 4.409e-14 -1.56982e-14 2.33532e-13 46.8742 6.2586 22.6196 -27.341 -27.5504 63.3435 0.0580028 -5.58532 -0.775148 8.31865e-10 2.65995e-10 -2.85617e-09 1.41999e-09 4.62713e-10 -4.94533e-09 8.31887e-10 2.65992e-10 -2.85619e-09 7.73091 5.47488 0.417314 8.31866e-10 2.65993e-10 -2.85617e-09 2.90554 0.965183 0.102902 8.31867e-10 2.65992e-10 -2.85617e-09 10.2786 0.731801 0.0259123 8.31862e-10 2.65991e-10 -2.85616e-09 2.22167 -0.733487 -0.20892 4.40771e-14 -1.57099e-14 2.33339e-13 -76.2753 5.14794 16.8442 18.8414 -11.6209 -35.936 0.000839982 0.827068 -0.116257 -6.05929e-10 6.89102e-09 1.78494e-09 -1.04535e-09 1.19561e-08 3.09785e-09 -6.05932e-10 6.89103e-09 1.78495e-09 -7.73091 5.47488 -0.417314 -6.05928e-10 6.89102e-09 1.78494e-09 -2.90554 0.965183 -0.102902 -6.05934e-10 6.89102e-09 1.78494e-09 -10.2786 0.731801 -0.0259123 -6.05922e-10 6.89102e-09 1.78494e-09 -2.22167 -0.733487 0.20892 -2.03217e-16 0.0 -3.88251e-19 22.9806 -0.247728 29.1992 -0.0340907 7.61591 -0.341983 -21.6985 -31.6427 -41.6048 2.03217e-16 0.0 3.88251e-19 4.88528 -23.6915 -21.0811 0.0773932 16.2623 -0.837583 2.71184 -9.07629 12.615
